<svg viewBox="0 0 1920 1080" xmlns="http://www.w3.org/2000/svg" data-name="Capa 1" id="Capa_1">
  <defs>
    <style>
      .cls-1 {
        fill: #1d1d1b;
      }
    </style>
  </defs>
  <g>
    <path d="M442.76,266.13l-133.38,342.75c-1.51,4.5-4.04,6.03-8.53,6.03h-9.5c-4.97,0-7-1.53-8.47-5.54l-133.42-343.24c-1.51-3.5-.51-6.03,3.98-6.03h9.49c7.52,0,9.5,1,11.01,5.51l110.93,287.32c4.49,12.49,8.51,27.01,11,33.5h1.5c2.47-6.49,6-20.53,10.5-33.5l110.41-287.32c1.5-4.51,3.99-5.51,11.01-5.51h9.47c5.01,0,5.53,2.53,4,6.03Z" class="cls-1"></path>
    <path d="M607.21,253.12c86.94,0,133.9,46.99,133.9,123.4v121.96c0,76.45-46.97,123.43-133.9,123.43s-134.95-46.98-134.95-123.43v-121.96c0-76.41,46.99-123.4,134.95-123.4ZM607.21,274.62c-72.96,0-111.95,37.96-111.95,101.89v121.96c0,63.96,38.99,101.93,111.95,101.93s110.91-37.96,110.91-101.93v-121.96c0-63.93-38.95-101.89-110.91-101.89Z" class="cls-1"></path>
    <path d="M1070.93,443v58.46c0,72.93-46.95,120.44-133.9,120.44s-134.91-47.51-134.91-123.95v-121.92c0-75.93,45.95-122.92,134.42-122.92,77.45,0,114.41,29.96,131.4,86.95,1.51,4.99,0,6.48-4.47,8.49l-9.01,2.98c-4.49,1.51-6.98.53-8.49-3.99-14.98-49.45-44.48-72.92-109.42-72.92-74.47,0-111.44,37.96-111.44,100.95v122.38c0,63.98,38.96,102.44,111.93,102.44s111.45-38.46,111.45-98.93v-43.49h-106.94c-4.99,0-6.49-2.01-6.49-6.48v-9c0-4.52,1.5-6.54,6.49-6.54h122.93c4.99,0,6.48,2.02,6.48,7.04Z" class="cls-1"></path>
    <path d="M1160.92,266.61v326.81h181.88c4.52,0,6,1.48,6,5.97v8.98c0,5.01-1.48,6.54-6,6.54h-198.36c-4.99,0-6.51-1.53-6.51-6.54v-341.77c0-4.99,1.52-6.51,6.51-6.51h10.5c4.48,0,5.98,1.52,5.98,6.51Z" class="cls-1"></path>
    <path d="M1403.29,260.1h10.48c4.52,0,6,1.52,6,6.51v341.77c0,5.01-1.48,6.54-6,6.54h-10.48c-4.99,0-6.49-1.53-6.49-6.54v-341.77c0-4.99,1.5-6.51,6.49-6.51Z" class="cls-1"></path>
    <path d="M1765.56,614.91h-9c-7.46,0-9.97-1.03-10.99-5.54l-44.45-110.4h-165.91l-43.98,110.4c-1.51,4.51-4,5.54-11.48,5.54h-8.51c-5.01,0-6-2.51-4.52-6.03l138.45-345.27c2.01-4.48,3.98-5.97,8.48-5.97h10c4.47,0,7.01,1.49,8.51,5.97l138.38,345.27c1.52,3.52.51,6.03-4.99,6.03ZM1618.67,280.59h-1.49c0,2.48-.51,11.51-4.02,21.48l-70.94,177.4h152.41l-70.96-177.4c-3.5-9.97-4.51-19-4.99-21.48Z" class="cls-1"></path>
  </g>
  <g>
    <g>
      <path d="M563.16,809.86c-1.28,3.51-3.02,6.49-5.24,8.84-2.22,2.38-4.86,4.2-7.86,5.36-3.02,1.22-6.21,1.76-9.63,1.76-6.18,0-11.32-1.4-15.37-4.32-4.05-2.91-7.34-6.64-9.88-11.23l5.12-3.23c1.26,2.13,2.59,4.05,4.02,5.69,1.37,1.66,2.86,3.09,4.49,4.2,1.63,1.1,3.4,1.93,5.37,2.47,1.95.61,4.16.85,6.59.85s4.94-.48,7.14-1.44c2.24-.92,4.14-2.34,5.77-4.2,1.62-1.88,2.91-4.19,3.81-7,.93-2.74,1.38-5.95,1.38-9.61v-56.67h6.19v56.19c0,4.68-.64,8.79-1.9,12.33Z" class="cls-1"></path>
      <path d="M540.44,826.88c-6.46,0-11.84-1.52-15.99-4.53-4.16-2.99-7.59-6.88-10.19-11.57l-.48-.88,6.89-4.34.56.94c1.28,2.16,2.6,4.02,3.91,5.53,1.38,1.67,2.81,3.02,4.29,4.02,1.57,1.06,3.23,1.82,5.06,2.33,1.76.55,3.81.81,6.31.81s4.66-.46,6.72-1.35c2.05-.84,3.82-2.13,5.4-3.93,1.56-1.82,2.77-4.05,3.59-6.62.89-2.62,1.33-5.73,1.33-9.29v-57.73h8.31v57.25c0,4.77-.66,9.04-1.97,12.69-1.35,3.71-3.19,6.8-5.46,9.21-2.35,2.52-5.13,4.41-8.25,5.62-3.06,1.23-6.34,1.83-10.02,1.83ZM516.61,810.63c2.38,4.02,5.43,7.39,9.08,10.01,3.84,2.77,8.66,4.12,14.75,4.12,3.4,0,6.42-.55,9.24-1.69,2.83-1.1,5.34-2.81,7.48-5.11,2.08-2.2,3.77-5.05,5.01-8.48,1.22-3.41,1.84-7.44,1.84-11.97v-55.13h-4.07v55.61c0,3.78-.48,7.13-1.44,9.95-.9,2.83-2.25,5.31-4.01,7.35-1.82,2.06-3.83,3.52-6.17,4.49-2.3,1.01-4.85,1.52-7.55,1.52s-4.97-.29-6.9-.9c-2.02-.56-3.88-1.42-5.64-2.6-1.65-1.11-3.23-2.6-4.72-4.4-1.2-1.39-2.37-3-3.55-4.89l-3.35,2.11Z" class="cls-1"></path>
    </g>
    <g>
      <path d="M638.49,824.68v-83.34h59.26v5.61h-53.07v32.94h47.75v5.6h-47.75v33.58h53.68v5.61h-59.87Z" class="cls-1"></path>
      <path d="M699.42,825.74h-61.99v-85.46h61.38v7.73h-53.07v30.82h47.75v7.72h-47.75v31.46h53.68v7.73ZM639.55,823.62h57.75v-3.49h-53.68v-35.7h47.75v-3.48h-47.75v-35.06h53.07v-3.49h-57.14v81.22Z" class="cls-1"></path>
    </g>
    <g>
      <path d="M850.81,825.28h-4.99l-24.38-72.38-24.42,72.38h-4.99l-30.25-83.94h6.91l26.18,74.16,24.41-74.41h4.73l24.44,74.41,26.17-74.16h6.43l-30.25,83.94Z" class="cls-1"></path>
      <path d="M851.55,826.34h-6.5l-23.62-70.13-23.66,70.13h-6.5l-31.01-86.06h9.17l25.39,71.94,23.68-72.18h6.27l23.7,72.18,25.39-71.94h8.69l-31.01,86.06ZM846.58,824.22h3.48l29.48-81.82h-4.18l-26.96,76.39-25.17-76.64h-3.19l-25.14,76.64-26.97-76.39h-4.65l29.48,81.82h3.49l25.18-74.64,25.14,74.64Z" class="cls-1"></path>
    </g>
    <g>
      <path d="M949.35,824.68v-83.34h59.28v5.61h-53.07v32.94h47.71v5.6h-47.71v33.58h53.64v5.61h-59.85Z" class="cls-1"></path>
      <path d="M1010.25,825.74h-61.97v-85.46h61.4v7.73h-53.07v30.82h47.71v7.72h-47.71v31.46h53.64v7.73ZM950.41,823.62h57.73v-3.49h-53.64v-35.7h47.71v-3.48h-47.71v-35.06h53.07v-3.49h-57.16v81.22Z" class="cls-1"></path>
    </g>
    <g>
      <path d="M1079.07,824.68v-83.34h6.18v77.73h48.94v5.61h-55.12Z" class="cls-1"></path>
      <path d="M1135.25,825.74h-57.24v-85.46h8.3v77.73h48.94v7.73ZM1080.13,823.62h53v-3.49h-48.94v-77.73h-4.06v81.22Z" class="cls-1"></path>
    </g>
    <g>
      <path d="M1262.7,824.68l-26.53-34.53h-27.28v34.53h-6.17v-83.34h34.98c4.52,0,8.61.6,12.28,1.75,3.65,1.13,6.74,2.76,9.33,4.86,2.58,2.11,4.57,4.58,5.99,7.5,1.47,2.9,2.14,6.09,2.14,9.59v.24c0,3.49-.6,6.55-1.83,9.35-1.23,2.71-2.93,5.06-5.12,7.04-2.19,2.03-4.74,3.62-7.74,4.84-2.98,1.23-6.19,2.1-9.68,2.56l27.46,35.62h-7.84ZM1261.3,765.19c0-5.66-2.1-10.11-6.26-13.34-4.18-3.27-10.04-4.91-17.68-4.91h-28.47v37.57h28.1c3.49,0,6.74-.39,9.68-1.31,2.98-.84,5.56-2.1,7.69-3.77,2.15-1.6,3.82-3.61,5.06-5.96,1.27-2.33,1.87-5.02,1.87-8.05v-.24Z" class="cls-1"></path>
      <path d="M1272.7,825.74h-10.52l-26.53-34.53h-25.7v34.53h-8.29v-85.46h36.04c4.55,0,8.79.6,12.6,1.8,3.7,1.14,6.96,2.84,9.68,5.05,2.74,2.24,4.79,4.81,6.27,7.86,1.52,2.99,2.25,6.29,2.25,10.05s-.63,7.08-1.93,10.02c-1.3,2.86-3.11,5.35-5.37,7.4-2.27,2.11-4.91,3.76-8.06,5.03-2.56,1.06-5.29,1.85-8.14,2.35l27.68,35.9ZM1263.23,823.62h5.16l-27.27-35.37,1.83-.24c3.31-.44,6.48-1.27,9.41-2.49,2.91-1.18,5.34-2.69,7.43-4.63,2.06-1.86,3.7-4.12,4.87-6.7,1.17-2.65,1.74-5.57,1.74-8.91,0-3.67-.66-6.65-2.03-9.36-1.35-2.78-3.22-5.11-5.71-7.15-2.51-2.03-5.54-3.6-8.98-4.67-3.61-1.13-7.63-1.7-11.97-1.7h-33.92v81.22h4.05v-34.53h28.86l26.53,34.53ZM1236.99,785.57h-29.16v-39.69h29.53c7.83,0,13.99,1.73,18.34,5.13,4.42,3.43,6.66,8.19,6.66,14.17,0,3.48-.67,6.36-2,8.79-1.33,2.52-3.14,4.65-5.36,6.3-2.19,1.72-4.9,3.05-8.03,3.94-2.91.91-6.18,1.35-9.97,1.35ZM1209.95,783.45h27.04c3.58,0,6.64-.41,9.37-1.26,2.89-.82,5.36-2.03,7.35-3.59,1.99-1.48,3.59-3.37,4.78-5.62,1.16-2.13,1.75-4.67,1.75-7.55,0-5.59-1.91-9.68-5.85-12.74-3.97-3.11-9.7-4.68-17.03-4.68h-27.41v35.45Z" class="cls-1"></path>
    </g>
    <g>
      <path d="M1369.11,791.54v33.13h-6.2v-33l-35.7-50.34h7.74l31.17,44.74,31.31-44.74h7.37l-35.71,50.21Z" class="cls-1"></path>
      <path d="M1370.17,825.74h-8.32v-33.72l-36.68-51.74h10.35l.31.46,30.3,43.49,30.76-43.95h9.98l-36.7,51.61v33.85ZM1363.96,823.62h4.08v-32.41l34.71-48.81h-4.77l-31.87,45.53-31.73-45.53h-5.14l34.71,48.94v32.28Z" class="cls-1"></path>
    </g>
  </g>
</svg>